# xmcd CD database file
#
# Track frame offsets:
#	150
#	19411
#	35308
#	53383
#	70031
#	87193
#	101856
#	126559
#	142998
#	162622
#	180965
#	199114
#
# Disc length: 2935 seconds
#
# Revision: 0
# Processed by: cddbd v1.5.2PL0 Copyright (c) Steve Scherf et al.
# Submitted via: cdripper 1,0,43,1226
#
DISCID=a00b750c
DTITLE=Brantley Gilbert - Halfway To Heaven
DYEAR=2010
DGENRE=Country
TTITLE0=Hell On Wheels
TTITLE1=Bending The Rules And Breaking The Law
TTITLE2=Back In The Day
TTITLE3=My Kind Of Crazy
TTITLE4=Kick It In The Sticks
TTITLE5=Halfway To Heaven
TTITLE6=Saving Amy
TTITLE7=Country Must Be Country Wide
TTITLE8=Take It Outside
TTITLE9=Them Boys
TTITLE10=Fall Into Me
TTITLE11=Dirt Road Anthem (Revisited) Featuring Colt Ford
EXTD=YEAR: 2010
EXTT0=
EXTT1=
EXTT2=
EXTT3=
EXTT4=
EXTT5=
EXTT6=
EXTT7=
EXTT8=
EXTT9=
EXTT10=
EXTT11=
PLAYORDER=
